<svg width="100" height="124" viewBox="0 0 100 124" fill="none" xmlns="http://www.w3.org/2000/svg">
<path d="M52.2784 120.544C51.534 121.991 49.466 121.991 48.7216 120.544L34.2466 92.4151C33.5616 91.0841 34.528 89.5 36.0249 89.5H64.9751C66.472 89.5 67.4384 91.0841 66.7534 92.4151L52.2784 120.544Z" fill="#007205"/>
<path d="M100 50C100 77.6142 77.6142 100 50 100C22.3858 100 0 77.6142 0 50C0 22.3858 22.3858 0 50 0C77.6142 0 100 22.3858 100 50Z" fill="#007205"/>
<path d="M95 50C95 74.8528 74.8528 95 50 95C25.1472 95 5 74.8528 5 50C5 25.1472 25.1472 5 50 5C74.8528 5 95 25.1472 95 50Z" fill="#4CAF50"/>
<path d="M25 65.2795V67.3208H75V63.102L25 65.2795Z" fill="white"/>
<path d="M25 71.0406L75 73.2181V69.0009H25V71.0406Z" fill="white"/>
<path d="M41.455 53.4662L40.951 58.995H59.0472L58.544 53.4662C71.5123 47.168 73.281 37.5987 73.315 33H26.6833C26.7182 37.5987 28.4867 47.168 41.455 53.4662Z" fill="white"/>
</svg>
