<svg width="100" height="124" viewBox="0 0 100 124" fill="none" xmlns="http://www.w3.org/2000/svg">
<path d="M52.2784 120.544C51.534 121.991 49.466 121.991 48.7216 120.544L34.2466 92.4151C33.5616 91.0841 34.528 89.5 36.0249 89.5H64.9751C66.472 89.5 67.4384 91.0841 66.7534 92.4151L52.2784 120.544Z" fill="#2B0076"/>
<path d="M100 50C100 77.6142 77.6142 100 50 100C22.3858 100 0 77.6142 0 50C0 22.3858 22.3858 0 50 0C77.6142 0 100 22.3858 100 50Z" fill="#2B0076"/>
<path d="M95 50C95 74.8528 74.8528 95 50 95C25.1472 95 5 74.8528 5 50C5 25.1472 25.1472 5 50 5C74.8528 5 95 25.1472 95 50Z" fill="#7E57C2"/>
<path d="M74.989 48.5362L74.9377 47.8132C74.8678 46.8275 74.3987 45.9433 73.6997 45.3202C73.0038 44.6957 72.0578 44.3144 71.0403 44.3144L70.8976 44.3189H29.1039L28.9594 44.3144C27.9404 44.3144 26.996 44.6957 26.2985 45.3202C25.5995 45.9434 25.1305 46.8276 25.062 47.8132L25 48.6817L25.0171 48.8265C25.5266 53.2589 27.2864 57.333 29.9489 60.7073C32.3503 63.754 35.488 66.2321 39.1089 67.9073L38.9458 69.1087C38.91 69.3378 38.8712 69.5721 38.8385 69.8183C38.8059 70.069 38.7779 70.3324 38.7779 70.6241C38.7795 70.9801 38.8183 71.3935 39.0001 71.8412C39.1368 72.1741 39.3651 72.5135 39.6618 72.7822C39.8839 72.9836 40.1355 73.1455 40.3934 73.2679C40.7833 73.4529 41.1841 73.5574 41.6035 73.6246C42.0244 73.6903 42.4687 73.7171 42.9658 73.7171H56.5356C57.1243 73.7164 57.6415 73.6799 58.1293 73.5828C58.4959 73.5097 58.8516 73.4007 59.1934 73.2253C59.4496 73.0947 59.6982 72.9231 59.9126 72.7126C60.2357 72.3993 60.4609 72.0024 60.5774 71.6344C60.6954 71.2636 60.7235 70.9256 60.7235 70.624C60.7235 70.3323 60.6954 70.0689 60.6628 69.8182C60.6318 69.572 60.5929 69.3377 60.5572 69.1086L60.4236 68.1236C64.1593 66.4857 67.4042 63.9986 69.888 60.9154C72.6405 57.5002 74.4626 53.349 74.9829 48.8264L75 48.6816L74.989 48.5362ZM56.5356 70.4638H42.9658C42.6178 70.4638 42.3553 70.4428 42.1767 70.4168C42.1814 70.3592 42.1891 70.2966 42.1985 70.225C42.2217 70.0459 42.2575 69.8273 42.2964 69.5788L42.2979 69.5631L42.5694 67.5641H56.9322L57.2036 69.5631L57.2051 69.5788C57.244 69.8273 57.2796 70.0459 57.303 70.225C57.3139 70.2966 57.3201 70.36 57.3247 70.4175C57.1459 70.4436 56.882 70.4638 56.5356 70.4638ZM67.21 58.9239C64.8272 61.8826 61.6352 64.2099 57.9584 65.5993L56.8032 66.0358H42.777L42.7949 65.9029L41.6035 65.4232C38.0386 63.9883 34.9521 61.6654 32.6471 58.7425C31.9309 57.8338 31.3007 56.8622 30.745 55.8466H32.3457C32.4326 55.8466 32.5041 55.7781 32.5041 55.6937V52.2202H35.474V54.6976H34.6508V53.2485C34.6508 53.1642 34.5793 53.0955 34.4908 53.0955H33.4532C33.3647 53.0955 33.2932 53.1642 33.2932 53.2485V55.6937C33.2932 55.7781 33.3647 55.8466 33.4532 55.8466H36.6733C36.7602 55.8466 36.8317 55.7781 36.8317 55.6937V51.2241C36.8317 51.1398 36.7602 51.0712 36.6733 51.0712H31.3081C31.2195 51.0712 31.1481 51.1398 31.1481 51.2241V54.6976H30.1629C30.0277 54.4088 29.8937 54.1185 29.7723 53.823H30.199C30.2876 53.823 30.359 53.7544 30.359 53.6701V51.2241C30.359 51.1398 30.2876 51.0712 30.199 51.0712H28.8678C28.665 50.2645 28.5027 49.4423 28.4002 48.6013L28.4406 48.0357C28.4516 47.8976 28.509 47.7909 28.6053 47.7029C28.7031 47.6163 28.8227 47.5685 28.9594 47.5678L28.9935 47.5693L29.0479 47.5723H70.9519L71.0047 47.5693L71.0404 47.5678C71.1772 47.5685 71.2952 47.6163 71.3931 47.7029C71.4909 47.7909 71.5483 47.8984 71.5593 48.0357L71.5997 48.5997C71.4972 49.4414 71.3337 50.2638 71.1306 51.0712H67.6528C67.5657 51.0712 67.4944 51.1398 67.4944 51.2241V54.6976H64.5243V52.2202H65.3491V53.6701C65.3491 53.7544 65.4205 53.823 65.5075 53.823H66.5451C66.6336 53.823 66.7051 53.7544 66.7051 53.6701V51.2241C66.7051 51.1398 66.6336 51.0712 66.5451 51.0712H63.3266C63.2381 51.0712 63.1666 51.1398 63.1666 51.2241V55.6937C63.1666 55.7781 63.238 55.8466 63.3266 55.8466H68.6918C68.7788 55.8466 68.8502 55.7781 68.8502 55.6937V52.2202H70.8024C70.7091 52.5143 70.6132 52.8067 70.5072 53.0955H69.7993C69.7123 53.0955 69.6409 53.1642 69.6409 53.2485V55.1125C68.9694 56.4683 68.1574 57.7472 67.21 58.9239Z" fill="white"/>
<path d="M48.7876 51.0711H43.4225C43.3355 51.0711 43.2641 51.1397 43.2641 51.224V54.6975H40.2925V52.2201H41.1173V53.67C41.1173 53.7543 41.1888 53.823 41.2757 53.823H42.3149C42.4019 53.823 42.4733 53.7543 42.4733 53.67V51.224C42.4733 51.1397 42.4018 51.0711 42.3149 51.0711H39.0949C39.0078 51.0711 38.9365 51.1397 38.9365 51.224V55.6936C38.9365 55.778 39.0078 55.8466 39.0949 55.8466H44.4615C44.5485 55.8466 44.6199 55.778 44.6199 55.6936V52.2201H47.5899V54.6975H46.7666V53.2484C46.7666 53.1641 46.6951 53.0954 46.6067 53.0954H45.5675C45.4806 53.0954 45.4091 53.1641 45.4091 53.2484V55.6936C45.4091 55.778 45.4806 55.8466 45.5675 55.8466H48.7875C48.8761 55.8466 48.9475 55.778 48.9475 55.6936V51.224C48.9477 51.1397 48.8762 51.0711 48.7876 51.0711Z" fill="white"/>
<path d="M60.9034 51.0711H55.5382C55.4497 51.0711 55.3782 51.1397 55.3782 51.224V54.6975H52.4083V52.2201H53.2315V53.67C53.2315 53.7543 53.303 53.823 53.3915 53.823H54.4291C54.5176 53.823 54.589 53.7543 54.589 53.67V51.224C54.589 51.1397 54.5175 51.0711 54.4291 51.0711H51.2106C51.122 51.0711 51.0507 51.1397 51.0507 51.224V55.6936C51.0507 55.778 51.1221 55.8466 51.2106 55.8466H56.5758C56.6643 55.8466 56.7358 55.778 56.7358 55.6936V52.2201H59.7057V54.6975H58.8809V53.2484C58.8809 53.1641 58.8094 53.0954 58.7225 53.0954H57.6833C57.5963 53.0954 57.5249 53.1641 57.5249 53.2484V55.6936C57.5249 55.778 57.5963 55.8466 57.6833 55.8466H60.9034C60.9903 55.8466 61.0618 55.778 61.0618 55.6936V51.224C61.0618 51.1397 60.9903 51.0711 60.9034 51.0711Z" fill="white"/>
<path d="M39.1755 34.7466C39.5857 35.6347 39.7657 36.2607 39.7735 36.9404C39.7828 37.6135 39.6182 38.3105 39.4536 38.9201C39.1025 40.1431 38.8322 41.0244 39.1709 41.2482C39.4816 41.4579 40.3405 41.0102 41.285 39.782C41.7385 39.1619 42.2278 38.3142 42.419 37.1733C42.6363 36.0347 42.3148 34.6572 41.8209 33.6438C41.3347 32.6073 40.9433 31.9 40.7879 31.2463C40.617 30.6002 40.6248 29.9517 40.6916 29.3451C40.8422 28.134 41.0582 27.2319 40.6979 27.0356C40.3779 26.8551 39.5282 27.352 38.7515 28.7452C38.3802 29.4383 38.0587 30.4412 38.1566 31.6008C38.2374 32.7634 38.7748 33.8774 39.1755 34.7466Z" fill="white"/>
<path d="M48.8623 34.7466C49.2723 35.6347 49.4525 36.2607 49.4588 36.9404C49.4696 37.6135 49.3049 38.3105 49.1403 38.9201C48.7892 40.1431 48.519 41.0244 48.8576 41.2482C49.1682 41.4579 50.0272 41.0102 50.9716 39.782C51.4253 39.1619 51.9145 38.3142 52.1041 37.1733C52.3215 36.0347 52 34.6572 51.506 33.6438C51.0213 32.6073 50.6299 31.9 50.4746 31.2463C50.3037 30.6002 50.3115 29.9517 50.3783 29.3451C50.529 28.134 50.7449 27.2319 50.383 27.0356C50.063 26.8551 49.2149 27.352 48.4367 28.7452C48.067 29.4383 47.7455 30.4412 47.8433 31.6008C47.9241 32.7634 48.4615 33.8774 48.8623 34.7466Z" fill="white"/>
<path d="M58.5471 34.7466C58.9587 35.6347 59.1389 36.2607 59.1452 36.9404C59.1545 37.6135 58.9915 38.3105 58.8267 38.9201C58.4757 40.1431 58.2054 41.0244 58.5425 41.2482C58.8547 41.4579 59.7137 41.0102 60.6581 39.782C61.1116 39.1619 61.6009 38.3142 61.7904 37.1733C62.0079 36.0347 61.6863 34.6572 61.1924 33.6438C60.7078 32.6073 60.3163 31.9 60.161 31.2463C59.9901 30.6002 59.9979 29.9517 60.0647 29.3451C60.2153 28.134 60.4312 27.2319 60.0693 27.0356C59.7494 26.8551 58.9012 27.352 58.123 28.7452C57.7517 29.4383 57.4318 30.4412 57.5297 31.6008C57.6105 32.7634 58.1479 33.8774 58.5471 34.7466Z" fill="white"/>
</svg>
