<svg width="100" height="124" viewBox="0 0 100 124" fill="none" xmlns="http://www.w3.org/2000/svg">
<path d="M52.2784 120.544C51.534 121.991 49.466 121.991 48.7216 120.544L34.2466 92.4151C33.5616 91.0841 34.528 89.5 36.0249 89.5H64.9751C66.472 89.5 67.4384 91.0841 66.7534 92.4151L52.2784 120.544Z" fill="#770200"/>
<path d="M100 50C100 77.6142 77.6142 100 50 100C22.3858 100 0 77.6142 0 50C0 22.3858 22.3858 0 50 0C77.6142 0 100 22.3858 100 50Z" fill="#770200"/>
<path d="M95 50C95 74.8528 74.8528 95 50 95C25.1472 95 5 74.8528 5 50C5 25.1472 25.1472 5 50 5C74.8528 5 95 25.1472 95 50Z" fill="#EF5350"/>
<path d="M45.1636 27C43.9759 27 43.0141 27.9623 43.0141 29.1499C43.0141 29.1506 43.0141 29.2926 43.0141 29.5456C43.0141 30.788 43.0141 34.6987 43.0141 37.3818C43.0141 38.4048 42.1842 39.2349 41.1605 39.2349C40.1368 39.2349 39.3074 38.4048 39.3074 37.3818C39.3074 34.1514 39.3074 29.2983 39.3074 29.2983C39.3074 28.1114 38.3445 27.1483 37.1568 27.1483C35.9691 27.1483 35.0066 28.1113 35.0066 29.2983C35.0066 29.299 35.0066 29.4416 35.0066 29.6933C35.0066 30.9139 35.0066 34.7051 35.0066 37.3818C35.0066 38.4048 34.1771 39.2349 33.1531 39.2349C32.1297 39.2349 31.2999 38.4048 31.2999 37.3818C31.2999 34.1539 31.2999 29.1499 31.2999 29.1499C31.3 27.9623 30.3374 27 29.1503 27C27.9629 27 27 27.9623 27 29.1499C27 29.1506 27 29.2926 27 29.5456C27 31.3122 27 38.4655 27 39.8281C27.0007 40.0534 27.0189 40.2625 27.0493 40.469C27.1075 40.8551 27.2059 41.2352 27.3424 41.6302C27.5817 42.3162 27.9387 43.0425 28.4374 43.7756C28.8115 44.3242 29.2654 44.8735 29.8101 45.3938C30.6262 46.1722 31.6507 46.8828 32.8854 47.3927C33.2955 47.5625 33.7303 47.7064 34.1843 47.8271V71.3061C34.1843 71.9696 34.722 72.5066 35.3855 72.5066H37.1568H38.9285C39.5922 72.5066 40.1298 71.9696 40.1298 71.3061V47.8289C40.6977 47.6779 41.2342 47.4869 41.7336 47.2603C42.7084 46.8194 43.5447 46.2534 44.2425 45.6332C45.2907 44.7004 46.0297 43.6574 46.526 42.6751C46.7739 42.182 46.9617 41.7031 47.0947 41.239C47.1619 41.0074 47.2149 40.7783 47.2521 40.5465C47.2896 40.3147 47.3134 40.0811 47.3134 39.8281C47.3134 38.2713 47.3134 29.1499 47.3134 29.1499C47.3133 27.9623 46.3504 27 45.1636 27Z" fill="white"/>
<path d="M68.0415 27.358C67.4933 26.9926 66.8125 26.9042 66.1924 27.1054C66.1351 27.1232 66.0781 27.1409 66.0222 27.1641L60.3263 29.549C59.6407 29.8352 59.1526 30.4554 59.0339 31.1883L57.5634 48.4418C57.4644 49.0567 57.6366 49.6854 58.0364 50.1624C58.4362 50.6407 62.9222 54.5665 62.9222 54.5665V71.2786C62.9222 71.9568 63.4725 72.5064 64.1498 72.5064H66.1923H67.7717C68.4499 72.5064 69 71.9569 69 71.2786V48.4958V47.2833V46.7983V45.8212V29.1459C69.0001 28.4268 68.6401 27.7558 68.0415 27.358Z" fill="white"/>
</svg>
