<svg width="100" height="124" viewBox="0 0 100 124" fill="none" xmlns="http://www.w3.org/2000/svg">
<path d="M52.2784 120.544C51.534 121.991 49.466 121.991 48.7216 120.544L34.2466 92.4151C33.5616 91.0841 34.528 89.5 36.0249 89.5H64.9751C66.472 89.5 67.4384 91.0841 66.7534 92.4151L52.2784 120.544Z" fill="#F86F35"/>
<path d="M100 50C100 77.6142 77.6142 100 50 100C22.3858 100 0 77.6142 0 50C0 22.3858 22.3858 0 50 0C77.6142 0 100 22.3858 100 50Z" fill="#F86F35"/>
<path d="M90 50C90 72.0914 72.0914 90 50 90C27.9086 90 10 72.0914 10 50C10 27.9086 27.9086 10 50 10C72.0914 10 90 27.9086 90 50Z" fill="white"/>
<g clip-path="url(#clip0_90_651)">
<path d="M49.9999 25.7C49.9999 24.1883 50.6004 22.7384 51.6694 21.6695C52.7383 20.6005 54.1881 20 55.6999 20C57.2116 20 58.6614 20.6005 59.7304 21.6695C60.7993 22.7384 61.3999 24.1883 61.3999 25.7C61.3999 27.2117 60.7993 28.6615 59.7304 29.7305C58.6614 30.7995 57.2116 31.4 55.6999 31.4C54.1881 31.4 52.7383 30.7995 51.6694 29.7305C50.6004 28.6615 49.9999 27.2117 49.9999 25.7ZM46.0217 43.6669C45.903 43.7144 45.7961 43.7619 45.6774 43.8094L44.7274 44.225C42.7799 45.0919 41.2836 46.7425 40.6067 48.7612L40.298 49.6875C39.633 51.6825 37.4836 52.7512 35.4886 52.0862C33.4936 51.4212 32.4249 49.2719 33.0899 47.2769L33.3986 46.3506C34.7524 42.3012 37.7449 39 41.6399 37.2662L42.5899 36.8506C45.0599 35.7581 47.7317 35.1881 50.4392 35.1881C55.7355 35.1881 60.5093 38.3706 62.5399 43.2512L64.3686 47.6331L66.9099 48.9037C68.7861 49.8419 69.5461 52.1219 68.608 53.9981C67.6699 55.8744 65.3899 56.6344 63.5136 55.6962L60.3311 54.1169C59.108 53.4994 58.1461 52.4781 57.6236 51.2075L56.4836 48.4762L54.1917 56.2544L60.0699 62.6669C60.7111 63.3675 61.1624 64.2106 61.3999 65.1369L64.1311 76.0737C64.6418 78.1044 63.4067 80.1706 61.3642 80.6812C59.3217 81.1919 57.2674 79.9569 56.7567 77.9144L54.1442 67.4525L45.7486 58.2969C43.9911 56.385 43.338 53.7131 44.003 51.2075L46.0099 43.6669H46.0217ZM39.158 67.2625L42.1267 59.8525C42.3761 60.2087 42.6611 60.5412 42.958 60.8737L47.7911 66.1462L46.0692 70.445C45.7842 71.1575 45.3567 71.8106 44.8105 72.3569L37.4836 79.6837C35.9992 81.1681 33.5886 81.1681 32.1042 79.6837C30.6199 78.1994 30.6199 75.7887 32.1042 74.3044L39.158 67.2625Z" fill="#F86F35"/>
</g>
<defs>
<clipPath id="clip0_90_651">
<rect width="38" height="60.8" fill="white" transform="translate(31 20)"/>
</clipPath>
</defs>
</svg>
