<svg width="100" height="124" viewBox="0 0 100 124" fill="none" xmlns="http://www.w3.org/2000/svg">
<path d="M52.2784 120.544C51.534 121.991 49.466 121.991 48.7217 120.544L34.2466 92.4151C33.5617 91.0841 34.528 89.5 36.025 89.5H64.9751C66.472 89.5 67.4384 91.0841 66.7534 92.4151L52.2784 120.544Z" fill="#006796"/>
<path d="M100 50C100 77.6142 77.6142 100 50 100C22.3858 100 0 77.6142 0 50C0 22.3858 22.3858 0 50 0C77.6142 0 100 22.3858 100 50Z" fill="#006796"/>
<path d="M95 50C95 74.8528 74.8528 95 50 95C25.1472 95 5 74.8528 5 50C5 25.1472 25.1472 5 50 5C74.8528 5 95 25.1472 95 50Z" fill="#29B6F6"/>
<path d="M23 61.1269C23 64.6902 26.732 67.5794 31.3355 67.5794H66.6693C71.2733 67.5794 75.0052 64.6901 75.0052 61.1269V61.0447H23V61.1269Z" fill="white"/>
<path d="M75.444 36.5149C73.8721 35.0956 71.6752 34.2127 69.2725 34.2127C69.015 34.2127 68.323 34.2127 67.5204 34.2127V33H30.0791V44.2022C30.0791 49.7259 32.7837 54.6756 37.0606 58.0496H60.5385C63.3702 55.8159 65.5058 52.8896 66.6304 49.5641C67.4657 49.8029 68.3542 49.9347 69.2725 49.934C71.6751 49.9347 73.872 49.0509 75.444 47.6318C77.0198 46.2156 78.0015 44.237 78.0001 42.0734C78.0014 39.9098 77.0202 37.9311 75.444 36.5149ZM72.1328 44.6482C71.3928 45.3123 70.397 45.7162 69.2725 45.7162C68.6236 45.7162 68.0183 45.5767 67.479 45.3355C67.5042 44.9595 67.5203 44.5835 67.5203 44.2021V38.4303C68.3229 38.4303 69.0149 38.4303 69.2724 38.4303C70.3969 38.4327 71.3927 38.834 72.1327 39.4982C72.8683 40.1639 73.3163 41.0607 73.3171 42.0732C73.3164 43.0857 72.8685 43.9841 72.1328 44.6482Z" fill="white"/>
</svg>
