<svg width="100" height="124" viewBox="0 0 100 124" fill="none" xmlns="http://www.w3.org/2000/svg">
<path d="M52.2784 120.544C51.534 121.991 49.466 121.991 48.7216 120.544L34.2466 92.4151C33.5616 91.0841 34.528 89.5 36.0249 89.5H64.9751C66.472 89.5 67.4384 91.0841 66.7534 92.4151L52.2784 120.544Z" fill="#836600"/>
<path d="M100 50C100 77.6142 77.6142 100 50 100C22.3858 100 0 77.6142 0 50C0 22.3858 22.3858 0 50 0C77.6142 0 100 22.3858 100 50Z" fill="#836600"/>
<path d="M95 50C95 74.8528 74.8528 95 50 95C25.1472 95 5 74.8528 5 50C5 25.1472 25.1472 5 50 5C74.8528 5 95 25.1472 95 50Z" fill="#FFBD3D"/>
<path d="M70.834 63.8252H29.3607C26.9532 63.8252 26.1107 65.7777 26.1107 68.186V68.6206C26.1107 71.0297 28.0632 72.9813 30.4707 72.9813H69.7133C72.1208 72.9813 74.0733 71.0298 74.0733 68.6206V68.186C74.0734 65.7777 73.2432 63.8252 70.834 63.8252Z" fill="white"/>
<path d="M68.6694 61.4829C70.9048 61.4829 72.717 60.041 72.717 58.2599V58.1661C72.717 56.3865 70.9049 54.9431 68.6694 54.9431H32.2453C30.0107 54.9431 28.1985 56.3866 28.1985 58.1661V58.2599C28.1985 60.041 30.0106 61.4829 32.2453 61.4829H68.6694Z" fill="white"/>
<path d="M29.0695 45.0611H71.1137C72.7129 45.0611 73.6361 44.1884 73.6361 42.5312C73.6361 41.9661 73.5856 42.223 73.4918 41.6642C72.2008 33.9354 62.2193 27 50.0929 27C37.9648 27 27.9833 33.9355 26.6923 41.6644H26.6915C26.5977 42.2231 26.5471 41.9662 26.5471 42.5314C26.5471 44.1885 27.4703 45.0611 29.0695 45.0611ZM63.3725 33.9126C64.0144 33.9126 64.5355 34.4337 64.5355 35.0756C64.5355 35.7173 64.0144 36.2385 63.3725 36.2385C62.7307 36.2385 62.2087 35.7173 62.2087 35.0756C62.2087 34.4337 62.7307 33.9126 63.3725 33.9126ZM57.5584 30.1194C58.2003 30.1194 58.7206 30.6405 58.7206 31.2816C58.7206 31.9251 58.2003 32.4463 57.5584 32.4463C56.9158 32.4463 56.3954 31.9251 56.3954 31.2816C56.3954 30.6405 56.9158 30.1194 57.5584 30.1194ZM53.7792 33.9126C54.4219 33.9126 54.9422 34.4337 54.9422 35.0756C54.9422 35.7173 54.4219 36.2385 53.7792 36.2385C53.1374 36.2385 52.6163 35.7173 52.6163 35.0756C52.6162 34.4337 53.1374 33.9126 53.7792 33.9126ZM49.4185 28.6809C50.061 28.6809 50.5813 29.2012 50.5813 29.8431C50.5813 30.4848 50.061 31.0052 49.4185 31.0052C48.7766 31.0052 48.2555 30.4848 48.2555 29.8431C48.2555 29.2011 48.7766 28.6809 49.4185 28.6809ZM45.9303 33.6215C46.5722 33.6215 47.0933 34.1426 47.0933 34.7852C47.0933 35.4271 46.5722 35.9482 45.9303 35.9482C45.2884 35.9482 44.7673 35.4271 44.7673 34.7852C44.7673 34.1426 45.2884 33.6215 45.9303 33.6215ZM41.8608 30.1333C42.5026 30.1333 43.0237 30.6536 43.0237 31.2963C43.0237 31.9388 42.5026 32.4593 41.8608 32.4593C41.218 32.4593 40.6978 31.9388 40.6978 31.2963C40.6978 30.6536 41.218 30.1333 41.8608 30.1333ZM37.2087 33.6215C37.8514 33.6215 38.3726 34.1426 38.3726 34.7852C38.3726 35.4271 37.8515 35.9482 37.2087 35.9482C36.5669 35.9482 36.0465 35.4271 36.0465 34.7852C36.0466 34.1426 36.5669 33.6215 37.2087 33.6215Z" fill="white"/>
<path d="M73.5473 47.6202C73.0352 47.6194 72.5499 47.6977 72.1111 47.8436C71.727 47.9708 71.382 48.1478 71.0819 48.3476C70.5568 48.6975 70.1669 49.1044 69.8431 49.4715C69.6001 49.7463 69.392 50.0032 69.2012 50.2193C68.9166 50.5472 68.6744 50.773 68.4574 50.9035C68.3474 50.9672 68.2438 51.0152 68.1206 51.0503C67.9974 51.0846 67.8523 51.1074 67.659 51.1082C67.4347 51.1074 67.2757 51.0772 67.1395 51.0324C67.0204 50.9932 66.9152 50.9394 66.8019 50.8652C66.6061 50.7372 66.3867 50.5284 66.1355 50.2413C65.9463 50.0276 65.74 49.7732 65.5002 49.4975C65.1398 49.0897 64.6978 48.6232 64.0746 48.2457C63.7647 48.0573 63.4107 47.8967 63.0208 47.7865C62.6327 47.6771 62.2119 47.6193 61.7714 47.6201C61.2601 47.6193 60.7749 47.6976 60.3361 47.8435C59.9519 47.9707 59.607 48.1477 59.3069 48.3476C58.7809 48.6974 58.3919 49.1043 58.068 49.4714C57.8242 49.7462 57.617 50.0031 57.4261 50.2192C57.1407 50.5471 56.9001 50.7729 56.6824 50.9034C56.5723 50.9671 56.4687 51.0151 56.3456 51.0502C56.2232 51.0845 56.0781 51.1073 55.8847 51.1081C55.6596 51.1073 55.5013 51.0771 55.3652 51.0323C55.2454 50.9931 55.1402 50.9393 55.0268 50.8651C54.8319 50.7371 54.6134 50.5283 54.3613 50.2412C54.1721 50.0275 53.9666 49.7731 53.7261 49.4991C53.3655 49.0896 52.9235 48.6231 52.3013 48.2456C51.9905 48.0572 51.6374 47.8966 51.2476 47.7864C50.8593 47.677 50.4377 47.6192 49.9981 47.62C49.4868 47.6192 49.0015 47.6975 48.5636 47.8435C48.1795 47.9706 47.8337 48.1476 47.5335 48.3475C47.0074 48.6973 46.6185 49.1042 46.2939 49.4713C46.0517 49.7461 45.8445 50.003 45.6536 50.2191C45.3682 50.547 45.126 50.7728 44.909 50.9033C44.7998 50.967 44.6962 51.015 44.5731 51.0501C44.4483 51.0844 44.3047 51.1072 44.1114 51.108C43.8863 51.1072 43.7281 51.077 43.5911 51.0322C43.4729 50.993 43.3669 50.9392 43.2552 50.865C43.0586 50.737 42.8409 50.5282 42.588 50.2411C42.3989 50.0274 42.1933 49.773 41.9528 49.499C41.5931 49.0895 41.1502 48.623 40.528 48.2455C40.2181 48.0571 39.8633 47.8965 39.4751 47.7863C39.0861 47.6769 38.6653 47.6191 38.2249 47.6199C37.7135 47.6191 37.2292 47.6974 36.7895 47.8434C36.4053 47.9705 36.0612 48.1476 35.7611 48.3474C35.2351 48.6972 34.8461 49.1041 34.5215 49.4712C34.2784 49.746 34.0714 50.0029 33.8813 50.219C33.5959 50.5469 33.3536 50.7727 33.1375 50.9032C33.0274 50.9669 32.923 51.0149 32.7998 51.05C32.6767 51.0843 32.5323 51.1071 32.339 51.1079C32.1139 51.1071 31.9557 51.0769 31.8195 51.0321C31.7004 50.993 31.5953 50.9391 31.4827 50.8649C31.287 50.7369 31.0676 50.529 30.8163 50.241C30.6271 50.0273 30.4216 49.7729 30.181 49.4989C29.8206 49.0894 29.3786 48.6247 28.7562 48.2454C28.4464 48.057 28.0924 47.8964 27.7034 47.7862C27.3144 47.6769 26.8936 47.619 26.4531 47.6198C25.6508 47.6202 25 48.2711 25 49.0735C25 49.8761 25.6508 50.5268 26.4533 50.5268C26.6785 50.5268 26.8366 50.5579 26.9728 50.6027C27.092 50.6427 27.1972 50.6948 27.3097 50.7699C27.5055 50.8988 27.724 51.1058 27.9761 51.3929C28.1652 51.6066 28.3708 51.8627 28.6113 52.1367C28.9719 52.5453 29.4138 53.011 30.0361 53.3902C30.3461 53.5785 30.7008 53.7384 31.0889 53.8476C31.4772 53.957 31.8988 54.0148 32.3392 54.0148C32.8498 54.0157 33.335 53.9373 33.7738 53.7914C34.1579 53.6634 34.5029 53.4873 34.8022 53.2883C35.3291 52.9376 35.718 52.5299 36.0427 52.1644C36.2849 51.888 36.4928 51.6319 36.683 51.4149C36.9692 51.0879 37.2097 50.862 37.4267 50.7323C37.5368 50.6671 37.6404 50.6198 37.7644 50.5848C37.8868 50.5506 38.031 50.5268 38.2251 50.5268C38.4503 50.5268 38.6084 50.5579 38.7447 50.6027C38.8638 50.6427 38.969 50.6948 39.0824 50.7699C39.2781 50.8988 39.4966 51.1058 39.7479 51.3929C39.937 51.6066 40.1434 51.8627 40.3831 52.1367C40.7445 52.5453 41.1857 53.011 41.8087 53.3902C42.1186 53.5785 42.4726 53.7384 42.8615 53.8476C43.2506 53.957 43.6714 54.0148 44.1118 54.0148C44.6224 54.0157 45.1084 53.9373 45.5463 53.7914C45.9305 53.6634 46.2755 53.4873 46.5756 53.2883C47.1016 52.9376 47.4906 52.5299 47.8145 52.1644C48.0582 51.888 48.2654 51.6319 48.4563 51.4149C48.7417 51.0879 48.9831 50.862 49.2 50.7323C49.3093 50.6671 49.4137 50.6198 49.5369 50.5848C49.66 50.5506 49.8044 50.5268 49.9984 50.5268C50.2235 50.5268 50.381 50.5579 50.5172 50.6027C50.637 50.6427 50.7423 50.6948 50.8549 50.7699C51.0506 50.8988 51.2691 51.1058 51.5211 51.3929C51.7111 51.6066 51.9167 51.8627 52.1564 52.1367C52.5169 52.5453 52.959 53.011 53.582 53.3902C53.892 53.5785 54.2459 53.7384 54.6348 53.8476C55.0239 53.957 55.4447 54.0148 55.8851 54.0148C56.3957 54.0157 56.8809 53.9373 57.3197 53.7914C57.7039 53.6634 58.0488 53.4873 58.3489 53.2883C58.8749 52.9376 59.2647 52.5299 59.5878 52.1644C59.8307 51.888 60.0388 51.6319 60.2288 51.4149C60.5142 51.0879 60.7564 50.862 60.9742 50.7323C61.0818 50.6671 61.1871 50.6198 61.3101 50.5848C61.4333 50.5506 61.5776 50.5268 61.7717 50.5268C61.996 50.5268 62.1543 50.5579 62.2913 50.6027C62.4103 50.6427 62.5163 50.6948 62.6281 50.7699C62.8247 50.8988 63.0423 51.1058 63.2953 51.3929C63.4844 51.6066 63.6908 51.8627 63.9314 52.1367C64.291 52.5461 64.7339 53.011 65.3561 53.3902C65.666 53.5785 66.0201 53.7384 66.409 53.8476C66.7981 53.9577 67.2189 54.0157 67.6593 54.0157C68.1706 54.0157 68.6568 53.9374 69.0938 53.7914C69.4779 53.6642 69.823 53.4873 70.123 53.2883C70.6498 52.9376 71.0397 52.5299 71.3626 52.1644C71.6049 51.8887 71.8137 51.6327 72.0036 51.4149C72.2891 51.0879 72.5306 50.862 72.7482 50.7323C72.8567 50.6671 72.9611 50.6198 73.0851 50.5856C73.2091 50.5506 73.3525 50.5268 73.5475 50.5268C74.3492 50.5268 75 49.8761 75 49.0735C74.9998 48.2711 74.349 47.6202 73.5473 47.6202Z" fill="white"/>
</svg>
