<svg width="106" height="106" viewBox="0 0 106 106" fill="none" xmlns="http://www.w3.org/2000/svg">
<path d="M47.7731 9.27345C50.0682 5.20158 55.9318 5.20158 58.2269 9.27345L68.474 27.4537C69.3302 28.9728 70.8049 30.0442 72.5142 30.3891L92.9712 34.5167C97.553 35.4411 99.365 41.0178 96.2016 44.4588L82.0777 59.8224C80.8976 61.1062 80.3343 62.8398 80.5345 64.572L82.9305 85.3032C83.4671 89.9464 78.7233 93.393 74.4732 91.4478L55.497 82.7628C53.9114 82.0371 52.0886 82.0371 50.503 82.7628L31.5268 91.4478C27.2767 93.393 22.5329 89.9464 23.0695 85.3032L25.4655 64.572C25.6657 62.8398 25.1024 61.1062 23.9223 59.8224L9.79838 44.4588C6.63502 41.0178 8.44699 35.4411 13.0288 34.5167L33.4858 30.3891C35.1951 30.0442 36.6698 28.9728 37.526 27.4537L47.7731 9.27345Z" fill="white"/>
<path d="M49.5154 14.1823C51.0454 11.4677 54.9546 11.4677 56.4846 14.1823L66.3843 31.7461C66.9551 32.7588 67.9382 33.4731 69.0777 33.703L88.841 37.6906C91.8956 38.3069 93.1035 42.0247 90.9946 44.3187L77.3497 59.1614C76.5629 60.0172 76.1874 61.1729 76.3209 62.3277L78.6356 82.356C78.9933 85.4515 75.8308 87.7492 72.9974 86.4524L54.6647 78.0619C53.6076 77.5781 52.3924 77.5781 51.3353 78.0619L33.0026 86.4524C30.1692 87.7492 27.0067 85.4515 27.3644 82.356L29.6791 62.3277C29.8126 61.1729 29.4371 60.0172 28.6503 59.1614L15.0054 44.3187C12.8965 42.0247 14.1044 38.3069 17.159 37.6906L36.9223 33.703C38.0618 33.4731 39.0449 32.7588 39.6157 31.7461L49.5154 14.1823Z" fill="#B54100"/>
<path d="M52.1289 16.5456C52.5114 15.8669 53.4886 15.8669 53.8712 16.5456L64.8366 36.0003C64.9793 36.2534 65.2251 36.432 65.51 36.4895L87.401 40.9065C88.1647 41.0605 88.4667 41.99 87.9394 42.5635L72.8254 59.0041C72.6288 59.218 72.5349 59.507 72.5682 59.7957L75.1322 81.9802C75.2216 82.7541 74.431 83.3285 73.7226 83.0043L53.4162 73.7105C53.1519 73.5895 52.8481 73.5895 52.5838 73.7105L32.2774 83.0043C31.5691 83.3285 30.7784 82.7541 30.8679 81.9802L33.4318 59.7957C33.4652 59.507 33.3713 59.218 33.1746 59.0041L18.0606 42.5635C17.5334 41.99 17.8354 41.0605 18.599 40.9065L40.49 36.4895C40.7749 36.432 41.0207 36.2534 41.1634 36.0003L52.1289 16.5456Z" fill="#FFDE30"/>
<path d="M87.7705 40.9087C88.4862 41.0374 88.7217 41.865 88.2296 42.4003L72.9656 59.0041C72.7689 59.218 72.675 59.507 72.7084 59.7957L75.2723 81.9802C75.3617 82.7541 74.5711 83.3285 73.8628 83.0043L53.5563 73.7105C53.2921 73.5895 52.9883 73.5895 52.724 73.7105L32.2817 83.0665C31.6043 83.3765 30.8711 82.8743 30.9838 82.1379C31.7129 77.3775 35.3454 62.9234 53.1402 51C70.6825 39.2457 83.5328 40.1462 87.7705 40.9087Z" fill="#FFB930" fill-opacity="0.42"/>
<ellipse cx="47.6432" cy="32.3163" rx="2.30335" ry="5.83755" transform="rotate(26.3278 47.6432 32.3163)" fill="white"/>
</svg>
